<svg width="32" height="33" viewBox="0 0 32 33" fill="none" xmlns="http://www.w3.org/2000/svg">
<g clip-path="url(#clip0_14_12)">
<path d="M27.6178 23.6062H9.03121L9.96443 21.7054L25.4704 21.6773C25.9948 21.6773 26.4442 21.3028 26.5378 20.7847L28.6852 8.76503C28.7414 8.44979 28.6571 8.12519 28.4511 7.87862C28.3493 7.75727 28.2223 7.65952 28.079 7.59215C27.9356 7.52478 27.7793 7.4894 27.6209 7.48847L7.8951 7.42293L7.72656 6.63015C7.62044 6.12452 7.16475 5.75623 6.64663 5.75623H1.82443C1.53222 5.75623 1.25198 5.8723 1.04536 6.07893C0.838736 6.28555 0.722656 6.56579 0.722656 6.858C0.722656 7.15021 0.838736 7.43045 1.04536 7.63707C1.25198 7.84369 1.53222 7.95977 1.82443 7.95977H5.75398L6.49058 11.4617L8.30397 20.2416L5.96934 24.0525C5.8481 24.2162 5.77507 24.4105 5.75853 24.6134C5.74198 24.8164 5.78257 25.02 5.87571 25.2011C6.06298 25.5725 6.44064 25.8066 6.85887 25.8066H8.81897C8.4011 26.3616 8.17539 27.0376 8.17601 27.7324C8.17601 29.499 9.61174 30.9347 11.3783 30.9347C13.1449 30.9347 14.5806 29.499 14.5806 27.7324C14.5806 27.0364 14.3497 26.3591 13.9377 25.8066H18.9659C18.548 26.3616 18.3223 27.0376 18.3229 27.7324C18.3229 29.499 19.7587 30.9347 21.5252 30.9347C23.2918 30.9347 24.7276 29.499 24.7276 27.7324C24.7276 27.0364 24.4966 26.3591 24.0846 25.8066H27.6209C28.2264 25.8066 28.7227 25.3135 28.7227 24.7048C28.7208 24.4129 28.6037 24.1336 28.3967 23.9278C28.1897 23.722 27.9097 23.6063 27.6178 23.6062ZM8.35391 9.59526L26.3256 9.65457L24.5653 19.5112L10.4482 19.5362L8.35391 9.59526ZM11.3783 28.7187C10.8352 28.7187 10.392 28.2755 10.392 27.7324C10.392 27.1893 10.8352 26.7461 11.3783 26.7461C11.9214 26.7461 12.3646 27.1893 12.3646 27.7324C12.3646 27.994 12.2607 28.2448 12.0757 28.4298C11.8908 28.6148 11.6399 28.7187 11.3783 28.7187ZM21.5252 28.7187C20.9822 28.7187 20.539 28.2755 20.539 27.7324C20.539 27.1893 20.9822 26.7461 21.5252 26.7461C22.0683 26.7461 22.5115 27.1893 22.5115 27.7324C22.5115 27.994 22.4076 28.2448 22.2227 28.4298C22.0377 28.6148 21.7868 28.7187 21.5252 28.7187Z" fill="white"/>
</g>
<defs>
<clipPath id="clip0_14_12">
<rect width="28.8" height="28.8" fill="white" transform="translate(0 2.09998)"/>
</clipPath>
</defs>
</svg>
