<svg width="22" height="24" viewBox="0 0 22 24" fill="none" xmlns="http://www.w3.org/2000/svg">
<path d="M13.536 6.96227e-08C14.0397 0.000130632 14.5306 0.158743 14.9392 0.453369C15.3477 0.747996 15.6532 1.1637 15.8124 1.6416L16.464 3.6H20.4C20.7183 3.6 21.0235 3.72643 21.2485 3.95147C21.4736 4.17652 21.6 4.48174 21.6 4.8C21.6 5.11826 21.4736 5.42348 21.2485 5.64853C21.0235 5.87357 20.7183 6 20.4 6L20.3964 6.0852L19.356 20.6568C19.2911 21.5647 18.8846 22.4144 18.2184 23.0347C17.5523 23.655 16.6759 23.9999 15.7656 24H5.8344C4.92415 23.9999 4.04773 23.655 3.38156 23.0347C2.71539 22.4144 2.30893 21.5647 2.244 20.6568L1.2036 6.084L1.2 6C0.88174 6 0.576516 5.87357 0.351472 5.64853C0.126428 5.42348 0 5.11826 0 4.8C0 4.48174 0.126428 4.17652 0.351472 3.95147C0.576516 3.72643 0.88174 3.6 1.2 3.6H5.136L5.7876 1.6416C5.94684 1.16351 6.25252 0.747662 6.66132 0.453018C7.07012 0.158374 7.56129 -0.000121273 8.0652 6.96227e-08H13.536ZM17.9964 6H3.6036L4.638 20.4852C4.65954 20.7878 4.79493 21.0711 5.01691 21.2779C5.23889 21.4848 5.53099 21.5999 5.8344 21.6H15.7656C16.069 21.5999 16.3611 21.4848 16.5831 21.2779C16.8051 21.0711 16.9405 20.7878 16.962 20.4852L17.9964 6ZM8.4 9.6C8.69392 9.60004 8.97761 9.70795 9.19725 9.90326C9.41689 10.0986 9.55721 10.3677 9.5916 10.6596L9.6 10.8V16.8C9.59966 17.1059 9.48255 17.4 9.27258 17.6224C9.06262 17.8448 8.77566 17.9787 8.47033 17.9966C8.165 18.0145 7.86435 17.9152 7.6298 17.7189C7.39526 17.5226 7.24453 17.2441 7.2084 16.9404L7.2 16.8V10.8C7.2 10.4817 7.32643 10.1765 7.55147 9.95147C7.77652 9.72643 8.08174 9.6 8.4 9.6ZM13.2 9.6C13.5183 9.6 13.8235 9.72643 14.0485 9.95147C14.2736 10.1765 14.4 10.4817 14.4 10.8V16.8C14.4 17.1183 14.2736 17.4235 14.0485 17.6485C13.8235 17.8736 13.5183 18 13.2 18C12.8817 18 12.5765 17.8736 12.3515 17.6485C12.1264 17.4235 12 17.1183 12 16.8V10.8C12 10.4817 12.1264 10.1765 12.3515 9.95147C12.5765 9.72643 12.8817 9.6 13.2 9.6ZM13.536 2.4H8.064L7.6644 3.6H13.9356L13.536 2.4Z" fill="#F39678"/>
</svg>
